<svg width="11" height="6" viewBox="0 0 11 6" fill="none" xmlns="http://www.w3.org/2000/svg">
<path d="M10.7932 0.210563C10.8588 0.273777 10.9108 0.348845 10.9463 0.431475C10.9817 0.514104 11 0.602674 11 0.692121C11 0.781569 10.9817 0.870139 10.9463 0.952768C10.9108 1.0354 10.8588 1.11046 10.7932 1.17368L6.00485 5.80038C5.93938 5.86366 5.86163 5.91386 5.77605 5.94812C5.69047 5.98237 5.59874 6 5.50609 6C5.41345 6 5.32172 5.98237 5.23614 5.94812C5.15056 5.91386 5.07281 5.86366 5.00734 5.80038L0.218941 1.17368C0.150784 1.11104 0.0963028 1.03587 0.0587089 0.952588C0.0211151 0.869304 0.00117088 0.779596 5.03126e-05 0.688754C-0.00107121 0.59791 0.0166557 0.50777 0.0521839 0.423645C0.087712 0.33952 0.140323 0.263115 0.206917 0.198932C0.273511 0.134748 0.352737 0.0840855 0.439928 0.049931C0.527119 0.0157766 0.620511 -0.00117924 0.714596 6.38689e-05C0.808681 0.0013065 0.901557 0.0207219 0.987748 0.0571665C1.07394 0.0936112 1.1517 0.146347 1.21645 0.212265L5.50609 4.3574L9.79574 0.212265C9.86109 0.148869 9.93875 0.0985322 10.0243 0.0641332C10.1098 0.0297342 10.2015 0.0119467 10.2941 0.0117884C10.3868 0.0116306 10.4785 0.0291057 10.5642 0.0632129C10.6498 0.0973201 10.7277 0.147391 10.7932 0.210563Z" fill="#3F3F3F"/>
</svg>
