<svg width="32" height="33" viewBox="0 0 32 33" fill="none" xmlns="http://www.w3.org/2000/svg">
<path d="M31.5 2.50781V30.4922C31.5 30.9609 31.3359 31.3594 31.0078 31.6875C30.6797 32.0625 30.2578 32.25 29.7422 32.25H21.7266V20.0156H25.8047L26.4375 15.3047H21.7266V12.2812C21.7266 11.4844 21.8672 10.9219 22.1484 10.5938C22.5234 10.1719 23.1562 9.96094 24.0469 9.96094H26.5781V5.67188C25.5938 5.57813 24.375 5.53125 22.9219 5.53125C21.0938 5.53125 19.6172 6.07031 18.4922 7.14844C17.3672 8.22656 16.8047 9.77344 16.8047 11.7891V15.3047H12.7266V20.0156H16.8047V32.25H1.75781C1.24219 32.25 0.820312 32.0625 0.492188 31.6875C0.164063 31.3594 0 30.9609 0 30.4922V2.50781C0 1.99219 0.164063 1.57031 0.492188 1.24219C0.820312 0.914062 1.24219 0.75 1.75781 0.75H29.7422C30.2109 0.75 30.6094 0.914062 30.9375 1.24219C31.3125 1.57031 31.5 1.99219 31.5 2.50781Z" fill="white"/>
</svg>
