<svg width="39" height="27" viewBox="0 0 39 27" fill="none" xmlns="http://www.w3.org/2000/svg">
<path d="M37.6719 4.21875C37.4375 3.375 37.0156 2.64844 36.4062 2.03906C35.7969 1.42969 35.0703 1.00781 34.2266 0.773438C33.0078 0.445312 30.1484 0.210938 25.6484 0.0703125L19.25 0L12.8516 0.0703125C8.35156 0.210938 5.49219 0.445312 4.27344 0.773438C3.42969 1.00781 2.70312 1.42969 2.09375 2.03906C1.48438 2.64844 1.0625 3.375 0.828125 4.21875C0.5 5.48438 0.265625 7.40625 0.125 9.98438C0.078125 11.2969 0.0546875 12.4688 0.0546875 13.5L0.125 17.0156C0.265625 19.6406 0.5 21.5859 0.828125 22.8516C1.0625 23.6484 1.48438 24.3516 2.09375 24.9609C2.70312 25.5703 3.42969 25.9922 4.27344 26.2266C5.49219 26.5547 8.35156 26.7891 12.8516 26.9297L19.25 27L25.6484 26.9297C30.1484 26.7891 33.0078 26.5547 34.2266 26.2266C35.0703 25.9922 35.7969 25.5703 36.4062 24.9609C37.0156 24.3516 37.4375 23.6484 37.6719 22.8516C38 21.5859 38.2344 19.6406 38.375 17.0156L38.4453 13.5L38.375 9.98438C38.2344 7.40625 38 5.48438 37.6719 4.21875ZM15.3125 19.2656V7.80469L25.3672 13.5L15.3125 19.2656Z" fill="white"/>
</svg>
